<?xml version="1.0" encoding="UTF-8" standalone="no"?>
<!DOCTYPE svg PUBLIC "-//W3C//DTD SVG 1.1//EN" "http://www.w3.org/Graphics/SVG/1.1/DTD/svg11.dtd">
<svg width="100%" height="100%" viewBox="0 0 3508 2481" version="1.1" xmlns="http://www.w3.org/2000/svg" xmlns:xlink="http://www.w3.org/1999/xlink" xml:space="preserve" xmlns:serif="http://www.serif.com/" style="fill-rule:evenodd;clip-rule:evenodd;stroke-linecap:round;stroke-linejoin:round;stroke-miterlimit:10;">
    <g transform="matrix(1,0,0,1,12.3508,-62.2431)">
        <g transform="matrix(2.47378,0,0,2.47378,197.37,516.553)">
            <path d="M531.783,261L937.283,261C942.254,261 946.283,265.029 946.283,270L946.283,472.539C946.283,477.51 942.254,481.539 937.283,481.539L531.783,481.539C526.813,481.539 522.783,477.51 522.783,472.539L522.783,270C522.783,265.029 526.813,261 531.783,261Z" style="fill:rgb(191,255,191);fill-rule:nonzero;"/>
        </g>
        <g transform="matrix(2.47378,0,0,-2.47378,655.019,3658.25)">
            <path d="M346.783,1009L752.283,1009C757.254,1009 761.283,1004.97 761.283,1000L761.283,797.461C761.283,792.49 757.254,788.461 752.283,788.461L346.783,788.461C341.813,788.461 337.783,792.49 337.783,797.461L337.783,1000C337.783,1004.97 341.813,1009 346.783,1009ZM346.783,1009L346.783,1009" style="fill:none;fill-rule:nonzero;stroke:rgb(102,102,102);stroke-width:3.37px;"/>
        </g>
        <g transform="matrix(2.47378,0,0,2.47378,197.37,-1172.93)">
            <path d="M531.783,577.267L937.283,577.267C942.254,577.267 946.283,581.296 946.283,586.267L946.283,839.228C946.283,844.198 942.254,848.228 937.283,848.228L531.783,848.228C526.813,848.228 522.783,844.198 522.783,839.228L522.783,586.267C522.783,581.296 526.813,577.267 531.783,577.267Z" style="fill:white;fill-rule:nonzero;"/>
        </g>
        <g transform="matrix(2.47378,0,0,-2.47378,655.019,1968.77)">
            <path d="M346.783,692.733L752.283,692.733C757.254,692.733 761.283,688.704 761.283,683.733L761.283,430.772C761.283,425.802 757.254,421.772 752.283,421.772L346.783,421.772C341.813,421.772 337.783,425.802 337.783,430.772L337.783,683.733C337.783,688.704 341.813,692.733 346.783,692.733ZM346.783,692.733L346.783,692.733" style="fill:none;fill-rule:nonzero;stroke:black;stroke-width:3.37px;"/>
        </g>
        <g transform="matrix(2.47378,0,0,2.47378,197.37,-883.902)">
            <rect x="550.246" y="620.079" width="121.254" height="68.5" style="fill:white;"/>
        </g>
        <g transform="matrix(2.47378,0,0,-2.47378,655.019,2257.8)">
            <rect x="365.246" y="581.421" width="121.254" height="68.5" style="fill:none;stroke:black;stroke-width:1.68px;"/>
        </g>
        <g transform="matrix(2.47378,0,0,2.47378,197.37,-1401.98)">
            <path d="M713.173,709.123C712.24,709.274 711.12,709.762 710.33,710.365C707.939,712.181 706.087,716.037 705.304,720.84C705.01,722.657 704.809,725.177 704.809,727.101C704.809,729.37 705.074,732.27 705.455,734.274C705.541,734.719 705.584,735.114 705.548,735.142C705.52,735.171 705.168,735.458 704.773,735.774C703.423,736.851 701.879,738.51 700.817,740.025C698.778,742.918 697.457,746.207 696.904,749.768C696.688,751.175 696.631,754.018 696.803,755.425C697.184,758.671 698.16,761.413 699.833,763.926L700.379,764.738L700.221,765.003C699.101,766.884 698.146,769.606 697.701,772.219C697.349,774.287 697.306,774.84 697.306,777.611C697.306,780.404 697.342,780.957 697.672,782.888C698.067,785.2 698.871,787.649 699.769,789.278C700.063,789.81 700.781,790.915 700.867,790.973C700.896,790.987 700.81,791.253 700.673,791.562C699.639,793.823 698.756,796.832 698.39,799.366C698.132,801.103 698.096,801.664 698.096,803.494C698.096,805.828 698.225,806.962 698.713,808.822L698.785,809.095L704.938,809.095L704.737,808.714C703.495,806.417 703.38,802.152 704.45,797.894C704.938,795.927 705.491,794.484 706.525,792.495L707.142,791.289L707.142,790.549C707.142,789.86 707.128,789.781 706.905,789.329C706.733,788.984 706.503,788.69 706.094,788.288C705.397,787.613 704.895,786.902 704.493,786.026C702.727,782.192 702.382,776.498 703.624,771.645C704.141,769.62 704.995,767.818 705.893,766.834C706.503,766.159 706.819,765.405 706.819,764.623C706.819,763.811 706.532,763.144 705.886,762.447C704.033,760.466 702.892,758.053 702.482,755.246C701.901,751.247 702.956,746.889 705.354,743.435C707.702,740.046 710.998,737.871 714.681,737.289C715.507,737.153 717.05,737.174 717.912,737.332C718.852,737.497 719.441,737.447 720.044,737.16C720.791,736.808 721.164,736.37 721.602,735.365C721.99,734.468 722.292,733.979 723.103,732.967C724.079,731.754 725.02,730.928 726.528,729.93C728.251,728.803 730.211,727.984 732.164,727.589C732.875,727.446 733.205,727.424 734.533,727.424C735.861,727.424 736.192,727.446 736.902,727.589C739.767,728.171 742.611,729.65 744.879,731.746C745.367,732.199 746.538,733.649 746.911,734.252C747.055,734.489 747.306,734.992 747.464,735.365C747.902,736.37 748.275,736.808 749.022,737.16C749.604,737.44 750.214,737.497 751.119,737.347C752.547,737.103 753.646,737.124 755.046,737.411C759.813,738.373 763.963,742.301 765.801,747.564C767.402,752.18 766.95,757.012 764.566,760.703C764.164,761.327 763.762,761.83 763.181,762.447C761.924,763.79 761.924,765.456 763.174,766.834C765.227,769.082 766.512,774.61 766.124,779.485C765.866,782.702 765.04,785.581 763.906,787.211C763.705,787.498 763.289,787.986 762.973,788.288C762.563,788.69 762.334,788.984 762.161,789.329C761.939,789.781 761.924,789.86 761.924,790.549L761.924,791.289L762.542,792.495C763.576,794.484 764.129,795.927 764.617,797.894C765.672,802.094 765.579,806.273 764.373,808.65C764.272,808.851 764.186,809.037 764.186,809.059C764.186,809.08 765.557,809.095 767.237,809.095L770.282,809.095L770.36,808.786C770.404,808.621 770.475,808.369 770.511,808.226C770.59,807.91 770.748,806.977 770.877,806.079C771,805.175 771,801.843 770.877,800.838C770.418,797.191 769.65,794.297 768.393,791.562C768.257,791.253 768.171,790.987 768.199,790.973C768.235,790.951 768.436,790.664 768.652,790.341C770.217,787.972 771.179,784.992 771.667,781.057C771.797,779.973 771.797,775.313 771.667,774.272C771.323,771.587 770.906,769.764 770.217,767.918C769.93,767.15 769.169,765.528 768.846,765.003L768.688,764.738L769.233,763.926C770.906,761.413 771.883,758.671 772.263,755.425C772.435,754.018 772.378,751.175 772.163,749.768C771.603,746.199 770.289,742.925 768.25,740.025C767.187,738.51 765.643,736.851 764.294,735.774C763.899,735.458 763.547,735.171 763.518,735.142C763.482,735.114 763.525,734.719 763.612,734.274C764.48,729.743 764.451,724.093 763.54,719.677C762.75,715.829 761.314,712.77 759.462,711.004C757.983,709.597 756.475,708.993 754.665,709.108C750.516,709.353 747.17,714.127 745.849,721.652C745.633,722.865 745.447,724.287 745.447,724.674C745.447,724.825 745.418,724.947 745.382,724.947C745.346,724.947 745.066,724.803 744.765,724.624C741.562,722.728 738.001,721.716 734.533,721.716C731.065,721.716 727.504,722.728 724.302,724.624C724,724.803 723.72,724.947 723.685,724.947C723.649,724.947 723.62,724.825 723.62,724.674C723.62,724.272 723.426,722.807 723.218,721.652C722.019,714.895 719.269,710.422 715.614,709.295C715.112,709.144 713.683,709.044 713.173,709.123ZM714.394,714.967C715.428,715.786 716.576,718.126 717.237,720.747C717.359,721.221 717.488,721.766 717.524,721.967C717.553,722.161 717.632,722.599 717.697,722.937C717.977,724.459 718.106,726.103 718.12,728.106L718.127,730.081L717.632,730.813L717.136,731.553L715.981,731.553C714.631,731.553 713.288,731.725 712.003,732.069C711.543,732.184 711.098,732.299 711.012,732.321C710.876,732.349 710.854,732.306 710.775,731.718C710.351,728.523 710.373,724.983 710.84,722.039C711.357,718.758 712.563,715.786 713.74,714.91C714.02,714.701 714.071,714.709 714.394,714.967ZM755.333,714.917C756.044,715.441 756.827,716.834 757.408,718.614C758.578,722.176 758.909,727.065 758.291,731.718C758.212,732.306 758.191,732.349 758.054,732.321C757.968,732.299 757.523,732.184 757.064,732.069C755.778,731.725 754.436,731.553 753.086,731.553L751.93,731.553L751.435,730.813L750.939,730.081L750.946,728.106C750.961,725.32 751.219,723.145 751.836,720.725C752.49,718.126 753.646,715.786 754.673,714.967C754.996,714.709 755.046,714.701 755.333,714.917Z" style="fill-rule:nonzero;"/>
        </g>
        <g transform="matrix(2.47378,0,0,2.47378,197.37,-1382)">
            <path d="M733.42,742.976C731.862,743.126 731.439,743.184 730.692,743.335C729.479,743.586 727.856,744.146 726.729,744.699C722.809,746.616 720.109,749.811 719.283,753.508C719.118,754.241 719.097,754.485 719.097,755.72C719.097,756.94 719.118,757.206 719.276,757.902C720.375,762.734 724.826,766.303 730.584,766.956C731.834,767.093 737.233,767.093 738.482,766.956C743.106,766.432 747.084,763.926 748.871,760.408C749.345,759.468 749.575,758.857 749.79,757.902C749.948,757.206 749.97,756.94 749.97,755.72C749.97,754.485 749.948,754.241 749.783,753.508C748.584,748.138 743.372,743.909 736.981,743.105C736.149,743.004 733.966,742.918 733.42,742.976ZM736.106,746.881C738.238,747.111 740.385,747.872 742.108,749.021C743.034,749.639 744.341,750.931 744.901,751.778C745.59,752.826 745.985,753.896 746.164,755.196C746.243,755.792 746.2,756.244 745.985,757.206C745.647,758.642 744.599,760.143 743.185,761.191C742.524,761.672 741.153,762.368 740.313,762.641C738.719,763.151 737.678,763.244 733.959,763.215C731.532,763.194 731.101,763.172 730.405,763.043C728.028,762.598 726.147,761.65 724.783,760.207C723.677,759.044 723.175,757.981 722.902,756.266C722.78,755.468 723.01,754.147 723.476,753.035C724.043,751.678 725.508,749.99 726.958,749.021C728.639,747.901 730.85,747.104 732.882,746.889C733.664,746.802 735.323,746.802 736.106,746.881Z" style="fill-rule:nonzero;"/>
        </g>
        <g transform="matrix(2.47378,0,0,2.47378,197.37,-1379.02)">
            <path d="M731.791,750.916C731.245,751.211 730.864,751.957 730.979,752.51C731.109,753.106 731.633,753.709 732.451,754.205C732.889,754.47 732.918,754.506 732.939,754.772C732.954,754.93 732.896,755.382 732.817,755.784C732.731,756.179 732.666,756.596 732.666,756.71C732.674,757.019 732.961,757.522 733.262,757.766C733.528,757.981 733.578,757.989 734.325,758.01C735.007,758.032 735.151,758.017 735.424,757.888C736.127,757.543 736.307,756.912 736.048,755.698C735.833,754.686 735.876,754.528 736.414,754.219C736.982,753.889 737.585,753.307 737.764,752.912C738.109,752.159 737.793,751.304 737.032,750.909C736.845,750.816 736.615,750.773 736.278,750.773C735.754,750.773 735.416,750.895 734.799,751.29L734.447,751.512L734.225,751.376C733.313,750.837 733.148,750.773 732.595,750.78C732.2,750.78 731.985,750.816 731.791,750.916Z" style="fill-rule:nonzero;"/>
        </g>
        <g transform="matrix(2.47378,0,0,2.47378,197.37,-1418.13)">
            <path d="M714.358,758.391C713.087,758.793 712.139,759.726 711.651,761.054C711.414,761.686 711.299,762.684 711.4,763.223C711.637,764.508 712.692,765.678 713.891,766.001C715.399,766.396 716.526,766.138 717.524,765.147C718.106,764.58 718.422,764.084 718.738,763.28C718.967,762.713 718.982,762.613 718.982,761.808L718.989,760.947L718.687,760.329C718.206,759.353 717.337,758.628 716.332,758.362C715.765,758.218 714.853,758.226 714.358,758.391Z" style="fill-rule:nonzero;"/>
        </g>
        <g transform="matrix(2.47378,0,0,2.47378,197.37,-1418.11)">
            <path d="M752.705,758.362C751.722,758.628 750.846,759.36 750.379,760.322L750.078,760.94L750.085,761.801C750.085,762.605 750.099,762.706 750.329,763.273C750.645,764.077 750.961,764.572 751.542,765.14C752.54,766.13 753.667,766.389 755.175,765.994C756.044,765.764 756.913,765.032 757.329,764.178C757.688,763.452 757.774,762.928 757.66,762.103C757.394,760.214 756.288,758.843 754.644,758.362C754.163,758.218 753.23,758.218 752.705,758.362Z" style="fill-rule:nonzero;"/>
        </g>
        <g transform="matrix(2.47378,0,0,2.47378,197.37,-883.902)">
            <rect x="797.566" y="620.079" width="121.254" height="68.5" style="fill:white;"/>
        </g>
        <g transform="matrix(2.47378,0,0,-2.47378,655.019,2257.8)">
            <rect x="612.566" y="581.421" width="121.254" height="68.5" style="fill:none;stroke:black;stroke-width:1.68px;"/>
        </g>
        <g transform="matrix(2.47378,0,0,2.47378,197.37,505.325)">
            <path d="M10.201,265.539L376.201,265.539C381.171,265.539 385.201,269.569 385.201,274.539L385.201,472.539C385.201,477.51 381.171,481.539 376.201,481.539L10.201,481.539C5.23,481.539 1.201,477.51 1.201,472.539L1.201,274.539C1.201,269.569 5.23,265.539 10.201,265.539Z" style="fill:rgb(218,218,218);fill-rule:nonzero;"/>
        </g>
        <g transform="matrix(2.47378,0,0,-2.47378,655.019,3647.02)">
            <path d="M-174.799,1004.46L191.201,1004.46C196.171,1004.46 200.201,1000.43 200.201,995.461L200.201,797.461C200.201,792.49 196.171,788.461 191.201,788.461L-174.799,788.461C-179.77,788.461 -183.799,792.49 -183.799,797.461L-183.799,995.461C-183.799,1000.43 -179.77,1004.46 -174.799,1004.46ZM-174.799,1004.46L-174.799,1004.46" style="fill:none;fill-rule:nonzero;stroke:black;stroke-width:3.37px;"/>
        </g>
        <g transform="matrix(0,2.47378,-2.47378,0,2602.01,1700.03)">
            <path d="M-217.41,896.461L-1.41,896.461" style="fill:none;fill-rule:nonzero;stroke:black;stroke-width:1.68px;"/>
        </g>
        <g transform="matrix(2.47378,0,0,2.47378,197.37,362.631)">
            <path d="M134.365,383.749L362.33,383.749C367.301,383.749 371.33,387.778 371.33,392.749L371.33,412.012C371.33,416.983 367.301,421.012 362.33,421.012L134.365,421.012C129.394,421.012 125.365,416.983 125.365,412.012L125.365,392.749C125.365,387.778 129.394,383.749 134.365,383.749Z" style="fill:rgb(191,255,191);fill-rule:nonzero;"/>
        </g>
        <g transform="matrix(2.47378,0,0,2.47378,197.37,432.34)">
            <path d="M371.33,400.041L318.132,376.541L371.33,376.541L371.33,400.041Z" style="fill:rgb(191,255,191);fill-rule:nonzero;"/>
        </g>
        <g transform="matrix(2.47378,0,0,2.47378,197.37,705.828)">
            <path d="M326.856,301.986L98.891,301.986C93.92,301.986 89.891,306.015 89.891,310.986L89.891,355.041C89.891,360.011 93.92,364.041 98.891,364.041L326.856,364.041C331.827,364.041 335.856,360.011 335.856,355.041L335.856,310.986C335.856,306.015 331.827,301.986 326.856,301.986Z" style="fill:rgb(191,255,255);fill-rule:nonzero;"/>
        </g>
        <g transform="matrix(2.47378,0,0,2.47378,197.37,836.864)">
            <path d="M89.891,318.278L143.089,294.778L89.891,294.778L89.891,318.278Z" style="fill:rgb(191,255,255);fill-rule:nonzero;"/>
        </g>
        <g transform="matrix(2.47378,0,0,2.47378,197.37,517.388)">
            <path d="M1100.19,307.281L1100.19,434.921L1188,434.921L1188,341.318L1152.88,341.318L1152.88,307.281L1100.19,307.281Z" style="fill:white;fill-rule:nonzero;"/>
        </g>
        <g transform="matrix(2.47378,0,0,-2.47378,655.019,3659.09)">
            <path d="M915.193,962.719L915.193,835.079L1003,835.079L1003,928.682L967.877,928.682L967.877,962.719L915.193,962.719ZM915.193,962.719L915.193,962.719" style="fill:none;fill-rule:nonzero;stroke:rgb(138,138,138);stroke-width:2.95px;"/>
        </g>
        <g transform="matrix(2.47378,0,0,2.47378,197.37,285.839)">
            <path d="M1152.88,400.883L1188,434.92L1152.88,434.92L1152.88,400.883Z" style="fill:white;fill-rule:nonzero;"/>
        </g>
        <g transform="matrix(2.47378,0,0,-2.47378,655.019,3427.54)">
            <path d="M967.877,869.117L1003,835.08L967.877,835.08L967.877,869.117ZM967.877,869.117L967.877,869.117" style="fill:none;fill-rule:nonzero;stroke:rgb(138,138,138);stroke-width:2.95px;"/>
        </g>
        <g transform="matrix(2.47378,0,0,2.47378,197.37,595.269)">
            <path d="M1126.85,291.539L1126.85,419.18L1214.66,419.18L1214.66,325.577L1179.53,325.577L1179.53,291.539L1126.85,291.539Z" style="fill:white;fill-rule:nonzero;"/>
        </g>
        <g transform="matrix(2.47378,0,0,-2.47378,655.019,3736.97)">
            <path d="M941.849,978.461L941.849,850.82L1029.66,850.82L1029.66,944.423L994.534,944.423L994.534,978.461L941.849,978.461ZM941.849,978.461L941.849,978.461" style="fill:none;fill-rule:nonzero;stroke:rgb(138,138,138);stroke-width:2.95px;"/>
        </g>
        <g transform="matrix(2.47378,0,0,2.47378,197.37,363.721)">
            <path d="M1179.53,385.141L1214.66,419.179L1179.53,419.179L1179.53,385.141Z" style="fill:white;fill-rule:nonzero;"/>
        </g>
        <g transform="matrix(2.47378,0,0,-2.47378,655.019,3505.42)">
            <path d="M994.534,884.859L1029.66,850.821L994.534,850.821L994.534,884.859ZM994.534,884.859L994.534,884.859" style="fill:none;fill-rule:nonzero;stroke:rgb(138,138,138);stroke-width:2.95px;"/>
        </g>
        <g transform="matrix(2.47378,0,0,2.47378,197.37,673.151)">
            <path d="M1153.51,275.798L1153.51,403.438L1241.31,403.438L1241.31,309.835L1206.19,309.835L1206.19,275.798L1153.51,275.798Z" style="fill:white;fill-rule:nonzero;"/>
        </g>
        <g transform="matrix(2.47378,0,0,-2.47378,655.019,3814.85)">
            <path d="M968.506,994.202L968.506,866.562L1056.31,866.562L1056.31,960.165L1021.19,960.165L1021.19,994.202L968.506,994.202ZM968.506,994.202L968.506,994.202" style="fill:none;fill-rule:nonzero;stroke:rgb(138,138,138);stroke-width:2.95px;"/>
        </g>
        <g transform="matrix(2.47378,0,0,2.47378,197.37,441.603)">
            <path d="M1206.19,369.4L1241.31,403.437L1206.19,403.437L1206.19,369.4Z" style="fill:white;fill-rule:nonzero;"/>
        </g>
        <g transform="matrix(2.47378,0,0,-2.47378,655.019,3583.3)">
            <path d="M1021.19,900.6L1056.31,866.563L1021.19,866.563L1021.19,900.6ZM1021.19,900.6L1021.19,900.6" style="fill:none;fill-rule:nonzero;stroke:rgb(138,138,138);stroke-width:2.95px;"/>
        </g>
        <g transform="matrix(2.47378,0,0,2.47378,197.37,2030.21)">
            <path d="M680.533,20.28L680.533,110.379C680.533,120.746 704.71,129.15 734.533,129.15C764.356,129.15 788.533,120.746 788.533,110.379L788.533,20.28C788.533,9.913 764.356,1.509 734.533,1.509C704.71,1.509 680.533,9.913 680.533,20.28Z" style="fill:white;fill-rule:nonzero;"/>
        </g>
        <g transform="matrix(2.47378,0,0,-2.47378,655.019,5171.91)">
            <path d="M495.533,1249.72L495.533,1159.62C495.533,1149.25 519.71,1140.85 549.533,1140.85C579.356,1140.85 603.533,1149.25 603.533,1159.62L603.533,1249.72C603.533,1260.09 579.356,1268.49 549.533,1268.49C519.71,1268.49 495.533,1260.09 495.533,1249.72ZM495.533,1249.72C495.533,1239.35 519.71,1230.95 549.533,1230.95C579.356,1230.95 603.533,1239.35 603.533,1249.72M495.533,1240.34C495.533,1229.97 519.71,1221.56 549.533,1221.56C579.356,1221.56 603.533,1229.97 603.533,1240.34M495.533,1230.95C495.533,1220.58 519.71,1212.18 549.533,1212.18C579.357,1212.18 603.533,1220.58 603.533,1230.95" style="fill:none;fill-rule:nonzero;stroke:rgb(138,138,138);stroke-width:2.95px;"/>
        </g>
        <g transform="matrix(-2.47378,-0.00271037,0.00271037,-2.47378,4834.2,3661)">
            <path d="M775.183,898.822L915.193,898.822" style="fill:none;fill-rule:nonzero;stroke:black;stroke-width:3.37px;"/>
        </g>
        <g transform="matrix(2.47378,0,0,2.47378,197.37,516.629)">
            <path d="M950.583,371.244L960.179,374.854L960.187,367.654L950.583,371.244Z" style="fill-rule:nonzero;stroke:black;stroke-width:3.37px;stroke-linecap:butt;stroke-linejoin:miter;"/>
        </g>
        <g transform="matrix(-1.15759,2.18622,-2.18622,-1.15759,5312.59,1718.38)">
            <path d="M563.503,1073.39L709.233,1073.39" style="fill:none;fill-rule:nonzero;stroke:black;stroke-width:3.37px;"/>
        </g>
        <g transform="matrix(2.47378,0,0,2.47378,197.37,1716.13)">
            <path d="M782.779,133.895L790.453,127.095L784.09,123.726L782.779,133.895Z" style="fill-rule:nonzero;"/>
        </g>
        <g transform="matrix(2.47378,0,0,-2.47378,655.019,4857.83)">
            <path d="M597.779,1136.11L605.453,1142.9L599.09,1146.27L597.779,1136.11Z" style="fill:none;fill-rule:nonzero;stroke:black;stroke-width:3.37px;stroke-linecap:butt;stroke-linejoin:miter;"/>
        </g>
        <g transform="matrix(-1.74924,-1.74921,-1.74921,1.74924,5081.62,2783.85)">
            <path d="M1023.24,289.912C1005.57,289.912 991.238,304.239 991.238,321.912C991.238,339.585 1005.57,353.912 1023.24,353.911C1040.91,353.911 1055.24,339.584 1055.24,321.911C1055.24,304.238 1040.91,289.911 1023.24,289.912" style="fill:rgb(191,255,255);fill-rule:nonzero;"/>
        </g>
        <g transform="matrix(-1.74923,-1.74923,-1.74923,1.74923,5031.19,1736.41)">
            <path d="M925.353,497.403C907.68,497.403 893.353,511.73 893.353,529.403C893.353,547.076 907.68,561.403 925.353,561.403C943.026,561.403 957.353,547.076 957.353,529.403C957.353,511.73 943.026,497.403 925.353,497.403" style="fill:rgb(191,255,255);fill-rule:nonzero;"/>
        </g>
        <g transform="matrix(-0.0230942,-2.47367,2.47367,-0.0230942,522.519,2776.25)">
            <path d="M645.514,746.992L728.455,746.992" style="fill:none;fill-rule:nonzero;stroke:black;stroke-width:3.37px;"/>
        </g>
        <g transform="matrix(2.47378,0,0,2.47378,197.37,-463.011)">
            <path d="M871.508,564.442L867.997,574.076L875.197,574.008L871.508,564.442Z" style="fill-rule:nonzero;stroke:black;stroke-width:3.37px;stroke-linecap:butt;stroke-linejoin:miter;"/>
        </g>
        <g transform="matrix(0.0110439,2.47375,-2.47375,0.0110439,4097.87,-617.027)">
            <path d="M620.133,733.593L702.071,733.593" style="fill:none;fill-rule:nonzero;stroke:black;stroke-width:3.37px;"/>
        </g>
        <g transform="matrix(2.47378,0,0,2.47378,197.37,-74.0735)">
            <path d="M846.327,495.455L849.885,485.839L842.685,485.871L846.327,495.455Z" style="fill-rule:nonzero;stroke:black;stroke-width:3.37px;stroke-linecap:butt;stroke-linejoin:miter;"/>
        </g>
        <g transform="matrix(-1.74923,-1.74923,-1.74923,1.74923,4163.45,3135.5)">
            <path d="M867.1,141.972C849.427,141.972 835.1,156.299 835.1,173.972C835.1,191.646 849.427,205.972 867.1,205.972C884.773,205.972 899.1,191.646 899.1,173.972C899.1,156.299 884.773,141.972 867.1,141.972" style="fill:rgb(191,255,255);fill-rule:nonzero;"/>
        </g>
        <g transform="matrix(0.00575227,-2.47377,2.47377,0.00575227,-181.872,2068.95)">
            <path d="M368.279,747.047L451.107,747.047" style="fill:none;fill-rule:nonzero;stroke:black;stroke-width:3.37px;"/>
        </g>
        <g transform="matrix(2.47378,0,0,2.47378,197.37,-462.535)">
            <path d="M594.812,564.359L591.189,573.95L598.389,573.967L594.812,564.359Z" style="fill-rule:nonzero;stroke:black;stroke-width:3.37px;stroke-linecap:butt;stroke-linejoin:miter;"/>
        </g>
        <g transform="matrix(0.00303222,2.47378,-2.47378,0.00303222,3550.89,-52.9823)">
            <path d="M395.601,734.647L477.429,734.647" style="fill:none;fill-rule:nonzero;stroke:black;stroke-width:3.37px;"/>
        </g>
        <g transform="matrix(2.47378,0,0,2.47378,197.37,-69.0977)">
            <path d="M621.577,494.444L625.165,484.839L617.965,484.848L621.577,494.444Z" style="fill-rule:nonzero;stroke:black;stroke-width:3.37px;stroke-linecap:butt;stroke-linejoin:miter;"/>
        </g>
        <g transform="matrix(2.47377,-0.00535556,0.00535556,2.47377,650.289,-786.857)">
            <path d="M201.2,883.449L323.883,883.449" style="fill:none;fill-rule:nonzero;stroke:black;stroke-width:3.37px;"/>
        </g>
        <g transform="matrix(2.47378,0,0,2.47378,197.37,440.291)">
            <path d="M518.483,386.663L508.875,383.084L508.891,390.284L518.483,386.663Z" style="fill-rule:nonzero;stroke:black;stroke-width:3.37px;stroke-linecap:butt;stroke-linejoin:miter;"/>
        </g>
        <g transform="matrix(-2.47374,-0.0147524,0.0147524,-2.47374,2005.37,3741.43)">
            <path d="M213.099,914.728L338.227,914.728" style="fill:none;fill-rule:nonzero;stroke:black;stroke-width:3.37px;"/>
        </g>
        <g transform="matrix(2.47378,0,0,2.47378,197.37,593.857)">
            <path d="M388.501,355.588L398.079,359.245L398.122,352.045L388.501,355.588Z" style="fill-rule:nonzero;stroke:black;stroke-width:3.37px;stroke-linecap:butt;stroke-linejoin:miter;"/>
        </g>
        <g transform="matrix(-1.74922,-1.74923,-1.74923,1.74922,2872.34,1318.18)">
            <path d="M453.992,401.195C436.319,401.195 421.992,415.522 421.992,433.195C421.992,450.868 436.319,465.195 453.992,465.195C471.665,465.195 485.992,450.868 485.992,433.195C485.992,415.522 471.665,401.195 453.992,401.195" style="fill:rgb(191,255,255);fill-rule:nonzero;"/>
        </g>
        <g transform="matrix(-1.74923,-1.74923,-1.74923,1.74923,2644.64,1867.88)">
            <path d="M453.992,271.028C436.319,271.028 421.992,285.354 421.992,303.028C421.992,320.701 436.319,335.028 453.992,335.028C471.665,335.028 485.992,320.701 485.992,303.028C485.992,285.354 471.665,271.028 453.992,271.028" style="fill:rgb(191,255,255);fill-rule:nonzero;"/>
        </g>
        <g transform="matrix(-1.74923,-1.74923,-1.74923,1.74923,3403.8,1062.33)">
            <path d="M539.992,497.403C522.319,497.403 507.992,511.73 507.992,529.403C507.992,547.076 522.319,561.403 539.992,561.403C557.665,561.403 571.992,547.076 571.992,529.403C571.992,511.73 557.665,497.403 539.992,497.403" style="fill:rgb(191,255,255);fill-rule:nonzero;"/>
        </g>
        <g transform="matrix(-1.40535,-2.03582,2.03582,-1.40535,340.627,4394.87)">
            <path d="M411.713,1080.96L560.804,1080.96" style="fill:none;fill-rule:nonzero;stroke:black;stroke-width:3.37px;"/>
        </g>
        <g transform="matrix(2.47378,0,0,2.47378,197.37,1100.16)">
            <path d="M623.456,248.339L625.947,258.284L631.872,254.194L623.456,248.339Z" style="fill-rule:nonzero;stroke:black;stroke-width:3.37px;stroke-linecap:butt;stroke-linejoin:miter;"/>
        </g>
        <g transform="matrix(1.36887,2.06053,-2.06053,1.36887,3367.59,-534.489)">
            <path d="M374.879,1073.74L530.337,1073.74" style="fill:none;fill-rule:nonzero;stroke:black;stroke-width:3.37px;"/>
        </g>
        <g transform="matrix(2.47378,0,0,2.47378,197.37,1717.62)">
            <path d="M685.931,133.504L683.618,123.515L677.621,127.499L685.931,133.504Z" style="fill-rule:nonzero;"/>
        </g>
        <g transform="matrix(2.47378,0,0,-2.47378,655.019,4859.32)">
            <path d="M500.931,1136.5L498.618,1146.49L492.621,1142.5L500.931,1136.5Z" style="fill:none;fill-rule:nonzero;stroke:black;stroke-width:3.37px;stroke-linecap:butt;stroke-linejoin:miter;"/>
        </g>
        <g transform="matrix(-1.74923,-1.74923,-1.74923,1.74923,3010.12,2657.77)">
            <path d="M593.992,141.972C576.319,141.972 561.992,156.299 561.992,173.972C561.992,191.646 576.319,205.972 593.992,205.972C611.665,205.972 625.992,191.646 625.992,173.972C625.992,156.299 611.665,141.972 593.992,141.972" style="fill:rgb(191,255,255);fill-rule:nonzero;"/>
        </g>
        <g transform="matrix(2.47378,0,0,2.47378,197.37,250.719)">
            <text x="645.898px" y="489.81px" style="font-family:'HelveticaNeue', 'Helvetica Neue';font-size:30px;">Ollama pr<tspan x="775.408px 792.628px " y="489.81px 489.81px ">ox</tspan>y</text>
        </g>
        <g transform="matrix(2.47378,0,0,2.47378,197.37,250.719)">
            <text x="696.961px" y="29.772px" style="font-family:'HelveticaNeue', 'Helvetica Neue';font-size:24px;">Ollama</text>
        </g>
        <g transform="matrix(2.47378,0,0,2.47378,197.37,250.719)">
            <text x="591.043px" y="202.891px" style="font-family:'HelveticaNeue', 'Helvetica Neue';font-size:20px;">LLM</text>
        </g>
        <g transform="matrix(2.47378,0,0,2.47378,197.37,250.719)">
            <text x="806.873px" y="191.111px" style="font-family:'HelveticaNeue', 'Helvetica Neue';font-size:20px;">Embedding</text>
        </g>
        <g transform="matrix(2.47378,0,0,2.47378,197.37,250.719)">
            <text x="830.403px" y="214.671px" style="font-family:'HelveticaNeue', 'Helvetica Neue';font-size:20px;">model</text>
        </g>
        <g transform="matrix(2.47378,0,0,2.47378,197.37,250.719)">
            <text x="143.629px" y="396.461px" style="font-family:'HelveticaNeue', 'Helvetica Neue';font-size:24px;">Chat app</text>
        </g>
        <g transform="matrix(2.47378,0,0,2.47378,197.37,250.719)">
            <text x="1146.83px" y="598.202px" style="font-family:'Helvetica';font-size:20px;fill:rgb(119,119,119);">Documents</text>
        </g>
        <g transform="matrix(2.47378,0,0,2.47378,197.37,250.719)">
            <text x="691.726px" y="814.646px" style="font-family:'Helvetica';font-size:20px;fill:rgb(119,119,119);">Database</text>
        </g>
        <g transform="matrix(2.47378,0,0,2.47378,197.37,250.719)">
            <text x="1016.57px" y="536.741px" style="font-family:'HelveticaNeue-Bold', 'Helvetica Neue';font-weight:700;font-size:24px;">1</text>
        </g>
        <g transform="matrix(2.47378,0,0,2.47378,197.37,250.719)">
            <text x="918.681px" y="329.249px" style="font-family:'HelveticaNeue-Bold', 'Helvetica Neue';font-weight:700;font-size:24px;">2</text>
        </g>
        <g transform="matrix(2.47378,0,0,2.47378,197.37,250.719)">
            <text x="860.428px" y="684.679px" style="font-family:'HelveticaNeue-Bold', 'Helvetica Neue';font-weight:700;font-size:24px;">3</text>
        </g>
        <g transform="matrix(2.47378,0,0,2.47378,197.37,250.719)">
            <text x="985.987px" y="590px" style="font-family:'Helvetica';font-size:20px;">Reading</text>
        </g>
        <g transform="matrix(2.47378,0,0,2.47378,197.37,250.719)">
            <text x="974.322px" y="614px" style="font-family:'Helvetica';font-size:20px;">documents</text>
        </g>
        <g transform="matrix(2.47378,0,0,2.47378,197.37,250.719)">
            <text x="969.102px" y="327.597px" style="font-family:'Helvetica';font-size:20px;">Chunking</text>
        </g>
        <g transform="matrix(2.47378,0,0,2.47378,197.37,250.719)">
            <text x="906.221px" y="683.028px" style="font-family:'Helvetica';font-size:20px;">Embedding</text>
        </g>
        <g transform="matrix(2.47378,0,0,2.47378,197.37,250.719)">
            <text x="447.32px" y="425.457px" style="font-family:'HelveticaNeue-Bold', 'Helvetica Neue';font-weight:700;font-size:24px;">4</text>
        </g>
        <g transform="matrix(2.47378,0,0,2.47378,197.37,250.719)">
            <text x="426.76px" y="374.805px" style="font-family:'Helvetica';font-size:20px;">Query</text>
        </g>
        <g transform="matrix(2.47378,0,0,2.47378,197.37,250.719)">
            <text x="447.32px" y="555.624px" style="font-family:'HelveticaNeue-Bold', 'Helvetica Neue';font-weight:700;font-size:24px;">7</text>
        </g>
        <g transform="matrix(2.47378,0,0,2.47378,197.37,250.719)">
            <text x="408.963px" y="602.972px" style="font-family:'Helvetica';font-size:20px;">Response</text>
        </g>
        <g transform="matrix(2.47378,0,0,2.47378,197.37,250.719)">
            <text x="533.32px" y="329.249px" style="font-family:'HelveticaNeue-Bold', 'Helvetica Neue';font-weight:700;font-size:24px;">6</text>
        </g>
        <g transform="matrix(2.47378,0,0,2.47378,197.37,250.719)">
            <text x="417.312px" y="315.597px" style="font-family:'Helvetica';font-size:20px;">Query &amp;</text>
        </g>
        <g transform="matrix(2.47378,0,0,2.47378,197.37,250.719)">
            <text x="408.963px" y="339.597px" style="font-family:'Helvetica';font-size:20px;">Response</text>
        </g>
        <g transform="matrix(2.47378,0,0,2.47378,197.37,250.719)">
            <text x="587.32px" y="684.679px" style="font-family:'HelveticaNeue-Bold', 'Helvetica Neue';font-weight:700;font-size:24px;">5</text>
        </g>
        <g transform="matrix(2.47378,0,0,2.47378,197.37,250.719)">
            <text x="473.529px" y="674.028px" style="font-family:'Helvetica';font-size:20px;">Context</text>
        </g>
        <g transform="matrix(2.47378,0,0,2.47378,197.37,250.719)">
            <text x="460.746px" y="698.028px" style="font-family:'Helvetica';font-size:20px;">reﬁnement</text>
        </g>
    </g>
</svg>
